<svg width="43" height="190" viewBox="0 0 43 190" fill="none" xmlns="http://www.w3.org/2000/svg">
<g opacity="0.5">
<path d="M26.4187 33.6616L24.5745 29.0607H17.7259L15.8817 33.6616H14.2392L20.0216 19.4458H22.3076L28.09 33.6616H26.4187ZM18.2638 27.7352H24.0366L21.155 20.5408L18.2638 27.7352ZM17.1911 57.6616V43.4458H18.8336V56.2977H26.8059V57.6616H17.1911ZM16.4594 67.7052C17.1894 67.5643 17.881 67.4619 18.5342 67.3978C19.1937 67.3274 19.8885 67.2922 20.6185 67.2922C22.6612 67.2922 24.1981 67.686 25.229 68.4736C26.2664 69.2548 26.7851 70.4715 26.7851 72.1236C26.7851 73.7309 26.26 74.9475 25.2098 75.7736C24.1661 76.5932 22.5492 77.0031 20.3592 77.0031C19.7124 77.0031 18.96 76.9679 18.1019 76.8974V81.6616H16.4594V67.7052ZM20.3688 75.7352C21.5086 75.7352 22.4307 75.6039 23.1351 75.3414C23.8395 75.0788 24.3518 74.685 24.6719 74.1599C24.9985 73.6284 25.1618 72.9529 25.1618 72.1332C25.1618 70.9037 24.7968 70.0008 24.0668 69.4245C23.3368 68.8482 22.2226 68.5601 20.7242 68.5601C19.7829 68.5601 18.9088 68.6337 18.1019 68.781V75.5911C18.8319 75.6872 19.5875 75.7352 20.3688 75.7352ZM26.4187 105.662L24.5745 101.061H17.7259L15.8817 105.662H14.2392L20.0216 91.4458H22.3076L28.09 105.662H26.4187ZM18.2638 99.7352H24.0366L21.155 92.5408L18.2638 99.7352ZM25.5845 129.662L20.7915 123.793C20.6442 123.799 20.4169 123.802 20.1095 123.802C19.4435 123.802 18.6335 123.764 17.6794 123.687V129.662H16.0561V115.753C17.5225 115.446 18.9537 115.292 20.3496 115.292C21.7264 115.292 22.8566 115.439 23.7403 115.734C24.624 116.022 25.2835 116.477 25.719 117.098C26.1608 117.719 26.3817 118.526 26.3817 119.518C26.3817 120.633 26.0552 121.532 25.402 122.218C24.7488 122.896 23.7819 123.357 22.5012 123.601L27.4671 129.662H25.5845ZM17.6794 122.41C18.1596 122.454 18.5695 122.486 18.9089 122.506C19.2546 122.525 19.6741 122.535 20.1671 122.535C21.7936 122.535 22.9751 122.291 23.7115 121.805C24.4543 121.318 24.8257 120.565 24.8257 119.547C24.8257 118.811 24.672 118.225 24.3646 117.79C24.0637 117.354 23.5962 117.04 22.9623 116.848C22.3283 116.656 21.4895 116.56 20.4457 116.56C19.8886 116.56 19.4019 116.582 18.9857 116.627C18.5695 116.666 18.134 116.727 17.6794 116.81V122.41ZM20.3334 153.662V139.446H21.9759V153.662H20.3334Z" fill="url(#paint0_linear_570_17591)"/>
<rect x="0.385617" y="0.385617" width="41.6466" height="168.514" stroke="white" stroke-width="0.771233"/>
<path d="M9.2428 187.82L7.98221 184.848H3.77275L2.51216 187.82H2.09572L5.64112 179.491H6.1251L9.6705 187.82H9.2428ZM3.93032 184.477H7.82464L5.87748 179.873L3.93032 184.477ZM11.1529 187.82V179.491H11.5355V187.448H16.364V187.82H11.1529ZM17.7038 179.637C18.1014 179.558 18.471 179.502 18.8124 179.468C19.1576 179.431 19.5271 179.412 19.921 179.412C21.0241 179.412 21.8607 179.635 22.431 180.082C23.0012 180.524 23.2864 181.209 23.2864 182.136C23.2864 183.044 22.9918 183.732 22.4028 184.201C21.8138 184.67 20.8852 184.904 19.6171 184.904C19.1219 184.904 18.6117 184.878 18.0864 184.826V187.82H17.7038V179.637ZM19.6171 184.533C20.3938 184.533 21.0222 184.445 21.5024 184.269C21.9826 184.088 22.3315 183.824 22.5491 183.475C22.7705 183.122 22.8812 182.68 22.8812 182.147C22.8812 181.337 22.6354 180.74 22.144 180.357C21.6525 179.975 20.9115 179.783 19.921 179.783C19.257 179.783 18.6454 179.836 18.0864 179.941V184.432C18.5704 184.499 19.0806 184.533 19.6171 184.533ZM30.5662 187.82L29.3056 184.848H25.0962L23.8356 187.82H23.4191L26.9645 179.491H27.4485L30.9939 187.82H30.5662ZM25.2537 184.477H29.1481L27.2009 179.873L25.2537 184.477ZM38.1714 187.82L35.0706 184.145C34.8905 184.156 34.7011 184.162 34.5022 184.162C34.2133 184.162 33.9526 184.156 33.72 184.145C33.4911 184.13 33.2041 184.109 32.8589 184.083V187.82H32.4763V179.637C32.8439 179.566 33.2022 179.511 33.5511 179.474C33.9038 179.433 34.3071 179.412 34.7611 179.412C35.5339 179.412 36.1642 179.493 36.652 179.654C37.1397 179.811 37.5017 180.063 37.7381 180.408C37.9745 180.753 38.0926 181.205 38.0926 181.764C38.0926 182.447 37.8788 182.984 37.4511 183.374C37.0271 183.76 36.38 184.006 35.5096 184.111L38.6554 187.82H38.1714ZM32.8589 183.711C33.1891 183.741 33.4611 183.762 33.675 183.773C33.8888 183.785 34.1683 183.79 34.5135 183.79C35.2676 183.79 35.8791 183.717 36.3481 183.571C36.8208 183.421 37.166 183.199 37.3836 182.907C37.6012 182.61 37.71 182.237 37.71 181.787C37.71 181.284 37.6087 180.888 37.4061 180.599C37.2035 180.307 36.8883 180.098 36.4606 179.975C36.0329 179.847 35.4627 179.783 34.7498 179.783C34.3596 179.783 34.0276 179.798 33.7537 179.828C33.4799 179.855 33.1816 179.896 32.8589 179.952V183.711ZM40.4121 187.82V179.491H40.7948V187.82H40.4121Z" fill="white"/>
</g>
<defs>
<linearGradient id="paint0_linear_570_17591" x1="21.1621" y1="13.6616" x2="21.1621" y2="157.662" gradientUnits="userSpaceOnUse">
<stop stop-color="white"/>
<stop offset="1" stop-color="#B9B9B9"/>
</linearGradient>
</defs>
</svg>
