<svg width="56" height="57" viewBox="0 0 56 57" fill="none" xmlns="http://www.w3.org/2000/svg">
<g id="Group">
<path id="Vector" d="M28 56.0234C43.464 56.0234 56 43.4874 56 28.0234C56 12.5595 43.464 0.0234375 28 0.0234375C12.536 0.0234375 0 12.5595 0 28.0234C0 43.4874 12.536 56.0234 28 56.0234Z" fill="#CA8504"/>
<path id="Vector_2" d="M21.203 25.2304L28 18.4334L34.8005 25.2339L38.7555 21.2789L28 10.5234L17.248 21.2754L21.203 25.2304ZM10.5 28.0234L14.455 24.0684L18.41 28.0234L14.455 31.9784L10.5 28.0234ZM21.203 30.8164L28 37.6134L34.8005 30.8129L38.7555 34.7662L28 45.5234L17.248 34.7714L17.2427 34.7662L21.203 30.8164ZM37.59 28.0234L41.545 24.0684L45.5 28.0234L41.545 31.9784L37.59 28.0234ZM32.011 28.0199H32.0145V28.0234L28 32.0379L23.9907 28.0304L23.9837 28.0234L23.9907 28.0182L24.6925 27.3147L25.0338 26.9734L28 24.0089L32.0127 28.0217L32.011 28.0199Z" fill="white"/>
</g>
</svg>
