<svg width="351" height="306" viewBox="0 0 351 306" fill="none" xmlns="http://www.w3.org/2000/svg">
<g filter="url(#filter0_d_570_17630)">
<rect x="24" y="20" width="303" height="258" rx="16" fill="#272526"/>
</g>
<path d="M167.194 119.149L162.468 123.875C161.864 124.479 161.524 125.299 161.524 126.153V129.653C161.524 131.432 162.967 132.875 164.747 132.875H168.246C169.101 132.875 169.92 132.536 170.525 131.931L175.25 127.206" stroke="white" stroke-width="3" stroke-linecap="round" stroke-linejoin="round"/>
<path d="M167.196 119.149C165.791 114.084 167.975 108.709 172.516 106.061C177.056 103.413 182.81 104.157 186.527 107.874C190.244 111.59 190.988 117.345 188.34 121.885C185.692 126.425 180.317 128.61 175.252 127.205" stroke="white" stroke-width="3" stroke-linecap="round" stroke-linejoin="round"/>
<path d="M178.148 116.232L178.166 116.25L178.148 116.267L178.131 116.25L178.148 116.232" stroke="white" stroke-width="3" stroke-linecap="round" stroke-linejoin="round"/>
<path fill-rule="evenodd" clip-rule="evenodd" d="M171.292 152.633V152.633C155.132 149.401 143.499 135.212 143.499 118.731V107.5C143.499 97.8355 151.334 90.0005 160.999 90.0005H188.999C198.664 90.0005 206.499 97.8355 206.499 107.5V118.731C206.499 135.211 194.867 149.401 178.707 152.633H178.706C176.259 153.123 173.739 153.123 171.292 152.633V152.633Z" stroke="white" stroke-width="3" stroke-linecap="round" stroke-linejoin="round"/>
<path d="M132.832 208.5C132.512 208.5 132.184 208.492 131.848 208.477C131.512 208.461 131.172 208.438 130.828 208.406V206.391C131.312 206.422 131.723 206.449 132.059 206.473C132.395 206.488 132.73 206.496 133.066 206.496C133.387 206.496 133.664 206.492 133.898 206.484C134.141 206.477 134.34 206.461 134.496 206.438C134.496 206.438 134.438 206.086 134.32 205.383C134.203 204.672 134.008 203.715 133.734 202.512C133.461 201.301 133.086 199.938 132.609 198.422C132.141 196.906 131.551 195.344 130.84 193.734L132.656 192.891C133.359 194.555 133.949 196.172 134.426 197.742C134.91 199.312 135.293 200.727 135.574 201.984C135.863 203.234 136.07 204.23 136.195 204.973C136.32 205.707 136.383 206.074 136.383 206.074C136.969 205.91 137.492 205.66 137.953 205.324C138.414 204.98 138.777 204.484 139.043 203.836C139.309 203.18 139.441 202.297 139.441 201.188V192.363H141.422V201.223C141.422 202.699 141.211 203.914 140.789 204.867C140.367 205.812 139.773 206.551 139.008 207.082C138.242 207.605 137.336 207.973 136.289 208.184C135.242 208.395 134.09 208.5 132.832 208.5ZM144.996 192.363H146.977V203.566C146.977 204.668 147.18 205.41 147.586 205.793C147.992 206.176 148.605 206.367 149.426 206.367H149.719V208.5H149.426C147.934 208.5 146.82 208.105 146.086 207.316C145.359 206.52 144.996 205.266 144.996 203.555V192.363ZM151.395 208.5H149.238V206.367H151.371C152.152 206.367 152.68 206.141 152.953 205.688C153.234 205.234 153.375 204.66 153.375 203.965C153.375 203.457 153.328 202.914 153.234 202.336C153.141 201.758 153.039 201.176 152.93 200.59L154.969 200.074C155.102 200.699 155.207 201.312 155.285 201.914C155.363 202.516 155.402 203.09 155.402 203.637C155.402 204.574 155.273 205.41 155.016 206.145C154.758 206.879 154.336 207.457 153.75 207.879C153.164 208.293 152.379 208.5 151.395 208.5ZM151.652 210.293L153.352 211.992L151.652 213.691L149.953 211.992L151.652 210.293ZM175.617 197.004L177.258 198.633L175.617 200.285L173.988 198.633L175.617 197.004ZM171.727 197.004L173.367 198.633L171.727 200.285L170.098 198.633L171.727 197.004ZM180.762 201.574L182.719 201.34L182.918 204.082C182.965 204.824 183.176 205.391 183.551 205.781C183.934 206.172 184.504 206.367 185.262 206.367H185.543V208.5H185.262C184.379 208.5 183.652 208.336 183.082 208.008C182.52 207.672 182.055 207.137 181.688 206.402C181.039 207.152 180.207 207.691 179.191 208.02C178.184 208.34 176.781 208.5 174.984 208.5H173.027C170.082 208.5 167.867 208.102 166.383 207.305C164.906 206.508 164.168 205.129 164.168 203.168C164.168 202.629 164.227 202.102 164.344 201.586C164.469 201.07 164.629 200.574 164.824 200.098L166.641 200.777C166.516 201.121 166.41 201.488 166.324 201.879C166.246 202.27 166.207 202.641 166.207 202.992C166.215 203.906 166.473 204.609 166.98 205.102C167.488 205.586 168.246 205.918 169.254 206.098C170.262 206.277 171.52 206.367 173.027 206.367H174.984C176.852 206.367 178.297 206.172 179.32 205.781C180.352 205.391 180.867 204.68 180.867 203.648C180.867 203.328 180.855 202.984 180.832 202.617C180.816 202.25 180.793 201.902 180.762 201.574ZM185.062 206.367H186.832C187.824 206.367 188.531 206.145 188.953 205.699C189.383 205.254 189.598 204.57 189.598 203.648C189.598 203.273 189.586 202.918 189.562 202.582C189.547 202.246 189.523 201.91 189.492 201.574L191.449 201.34L191.637 204.082C191.73 205.605 192.523 206.367 194.016 206.367H194.262V208.5H193.992C193.125 208.5 192.43 208.344 191.906 208.031C191.391 207.719 190.973 207.277 190.652 206.707C190.23 207.324 189.676 207.777 188.988 208.066C188.301 208.355 187.582 208.5 186.832 208.5H185.062V206.367ZM189.293 210.363L190.934 211.992L189.293 213.645L187.664 211.992L189.293 210.363ZM185.402 210.363L187.043 211.992L185.402 213.645L183.773 211.992L185.402 210.363ZM197.59 201.574L199.547 201.34L199.734 204.082C199.828 205.605 200.621 206.367 202.113 206.367H202.359V208.5H202.09C201.223 208.5 200.527 208.344 200.004 208.031C199.488 207.719 199.07 207.277 198.75 206.707C198.328 207.324 197.773 207.777 197.086 208.066C196.398 208.355 195.68 208.5 194.93 208.5H193.805V206.367H194.93C195.922 206.367 196.629 206.145 197.051 205.699C197.48 205.254 197.695 204.57 197.695 203.648C197.695 203.273 197.684 202.918 197.66 202.582C197.645 202.246 197.621 201.91 197.59 201.574ZM197.812 195.738L199.512 197.438L197.812 199.137L196.113 197.438L197.812 195.738ZM210.07 208.77C209.289 208.77 208.566 208.602 207.902 208.266C207.246 207.922 206.562 207.406 205.852 206.719C205.344 207.289 204.855 207.73 204.387 208.043C203.918 208.348 203.258 208.5 202.406 208.5H201.891V206.367H202.348C202.871 206.367 203.312 206.219 203.672 205.922C204.031 205.617 204.352 205.227 204.633 204.75C204.914 204.273 205.191 203.77 205.465 203.238C205.746 202.699 206.059 202.191 206.402 201.715C206.746 201.238 207.16 200.852 207.645 200.555C208.137 200.25 208.742 200.098 209.461 200.098C210.328 200.098 211.082 200.309 211.723 200.73C212.371 201.145 212.871 201.703 213.223 202.406C213.582 203.109 213.762 203.895 213.762 204.762C213.762 206.035 213.438 207.023 212.789 207.727C212.148 208.422 211.242 208.77 210.07 208.77ZM209.508 202.172C209.117 202.172 208.762 202.305 208.441 202.57C208.121 202.828 207.832 203.164 207.574 203.578C207.316 203.992 207.086 204.422 206.883 204.867C207.352 205.359 207.836 205.762 208.336 206.074C208.977 206.488 209.547 206.695 210.047 206.695C211.203 206.695 211.781 206.113 211.781 204.949C211.781 204.137 211.578 203.473 211.172 202.957C210.773 202.434 210.219 202.172 209.508 202.172ZM218.695 192.363V208.488H216.715V192.363H218.695Z" fill="#E4E4E4"/>
<defs>
<filter id="filter0_d_570_17630" x="0" y="0" width="351" height="306" filterUnits="userSpaceOnUse" color-interpolation-filters="sRGB">
<feFlood flood-opacity="0" result="BackgroundImageFix"/>
<feColorMatrix in="SourceAlpha" type="matrix" values="0 0 0 0 0 0 0 0 0 0 0 0 0 0 0 0 0 0 127 0" result="hardAlpha"/>
<feOffset dy="4"/>
<feGaussianBlur stdDeviation="12"/>
<feComposite in2="hardAlpha" operator="out"/>
<feColorMatrix type="matrix" values="0 0 0 0 0 0 0 0 0 0 0 0 0 0 0 0 0 0 0.08 0"/>
<feBlend mode="normal" in2="BackgroundImageFix" result="effect1_dropShadow_570_17630"/>
<feBlend mode="normal" in="SourceGraphic" in2="effect1_dropShadow_570_17630" result="shape"/>
</filter>
</defs>
</svg>
