<svg width="307" height="260" viewBox="0 0 307 260" fill="none" xmlns="http://www.w3.org/2000/svg">
<g filter="url(#filter0_d_570_17644)">
<rect x="24" y="20" width="258.781" height="211.932" rx="16" fill="#272526"/>
</g>
<path d="M122.004 84.5C122.004 88.3675 129.837 91.5 139.504 91.5" stroke="white" stroke-width="3" stroke-linecap="round" stroke-linejoin="round"/>
<path d="M150 109C150 112.868 157.833 116 167.5 116C177.167 116 185 112.868 185 109" stroke="white" stroke-width="3" stroke-linecap="round" stroke-linejoin="round"/>
<path d="M150.004 109V123C150.004 126.868 157.837 130 167.504 130" stroke="white" stroke-width="3" stroke-linecap="round" stroke-linejoin="round"/>
<path d="M184.996 109V123C184.996 126.868 177.163 130 167.496 130" stroke="white" stroke-width="3" stroke-linecap="round" stroke-linejoin="round"/>
<path d="M139.5 119.5C129.837 119.5 122 116.368 122 112.5" stroke="white" stroke-width="3" stroke-linecap="round" stroke-linejoin="round"/>
<path d="M122 84.5V112.5" stroke="white" stroke-width="3" stroke-linecap="round" stroke-linejoin="round"/>
<path d="M184.99 109C184.997 105.132 177.157 102 167.497 102C157.837 102 149.997 105.132 150 109C150 112.868 157.833 116 167.5 116C177.167 116 185 112.868 185 109" stroke="white" stroke-width="3" stroke-linecap="round" stroke-linejoin="round"/>
<ellipse cx="139.5" cy="84.5" rx="17.5" ry="7" stroke="white" stroke-width="3" stroke-linecap="round" stroke-linejoin="round"/>
<path d="M157 84.5V93.25" stroke="white" stroke-width="3" stroke-linecap="round" stroke-linejoin="round"/>
<path d="M172.75 79.25L183.25 68.75" stroke="white" stroke-width="3" stroke-linecap="round" stroke-linejoin="round"/>
<path d="M183.25 79.25L172.75 68.75" stroke="white" stroke-width="3" stroke-linecap="round" stroke-linejoin="round"/>
<path d="M122.004 98.5015C122.004 102.368 129.835 105.5 139.5 105.5" stroke="white" stroke-width="3" stroke-linecap="round" stroke-linejoin="round"/>
<path d="M139.497 105.5C129.833 105.5 122 102.367 122 98.5015" stroke="white" stroke-width="3" stroke-linecap="round" stroke-linejoin="round"/>
<path d="M123.227 181.012C123.32 181.684 123.562 182.246 123.953 182.699C124.352 183.145 124.809 183.367 125.324 183.367H125.641V185.5H125.324C124.848 185.5 124.375 185.398 123.906 185.195C123.445 184.992 123.062 184.648 122.758 184.164C122.492 184.664 122.113 185.043 121.621 185.301C121.129 185.559 120.5 185.688 119.734 185.688C119.273 185.688 118.805 185.613 118.328 185.465C117.859 185.316 117.406 185.148 116.969 184.961C116.539 184.766 116.145 184.594 115.785 184.445C115.426 184.297 115.125 184.223 114.883 184.223C114.445 184.223 114.113 184.367 113.887 184.656C113.668 184.938 113.52 185.418 113.441 186.098C113.371 186.777 113.336 187.719 113.336 188.922C113.336 189.453 113.34 189.926 113.348 190.34C113.363 190.762 113.383 191.176 113.406 191.582C113.438 191.988 113.469 192.449 113.5 192.965H111.484C111.445 192.246 111.414 191.57 111.391 190.938C111.367 190.312 111.355 189.68 111.355 189.039C111.355 188.164 111.379 187.332 111.426 186.543C111.48 185.754 111.602 185.043 111.789 184.41C111.984 183.77 112.285 183.242 112.691 182.828C113.098 182.406 113.656 182.129 114.367 181.996C114.805 180.473 115.375 179.277 116.078 178.41C116.789 177.535 117.758 177.098 118.984 177.098C119.703 177.098 120.363 177.27 120.965 177.613C121.566 177.949 122.066 178.414 122.465 179.008C122.871 179.594 123.125 180.262 123.227 181.012ZM121.328 182.008C121.328 181.203 121.113 180.531 120.684 179.992C120.254 179.445 119.703 179.172 119.031 179.172C118.547 179.172 118.137 179.324 117.801 179.629C117.465 179.926 117.184 180.32 116.957 180.812C116.73 181.297 116.531 181.816 116.359 182.371C117.211 182.746 117.918 183.043 118.48 183.262C119.051 183.473 119.477 183.578 119.758 183.578C120.273 183.578 120.664 183.438 120.93 183.156C121.195 182.867 121.328 182.484 121.328 182.008ZM127.984 174.133C128.664 174.609 129.371 175.113 130.105 175.645C130.84 176.168 131.523 176.73 132.156 177.332C132.797 177.926 133.312 178.562 133.703 179.242C134.102 179.914 134.301 180.633 134.301 181.398C134.293 182.852 133.789 183.898 132.789 184.539C131.797 185.18 130.211 185.5 128.031 185.5H125.172V183.367H128.02C129.535 183.367 130.621 183.234 131.277 182.969C131.934 182.695 132.262 182.156 132.262 181.352C132.262 180.836 132.078 180.332 131.711 179.84C131.352 179.348 130.883 178.863 130.305 178.387C129.734 177.902 129.121 177.43 128.465 176.969C127.809 176.5 127.191 176.039 126.613 175.586C126.363 175.383 126.172 175.145 126.039 174.871C125.906 174.598 125.84 174.324 125.84 174.051C125.84 173.73 125.926 173.43 126.098 173.148C126.277 172.859 126.555 172.641 126.93 172.492L135.355 169.07V171.145L127.984 174.133ZM146.336 183.391C149.336 183.391 150.836 182.613 150.836 181.059C150.836 180.324 150.461 179.547 149.711 178.727C148.961 177.906 147.719 177.023 145.984 176.078L146.91 174.227C148.918 175.25 150.406 176.332 151.375 177.473C152.352 178.605 152.84 179.789 152.84 181.023C152.84 182.492 152.332 183.602 151.316 184.352C150.309 185.102 148.707 185.477 146.512 185.477C145.465 185.477 144.52 185.383 143.676 185.195V183.074C144.699 183.285 145.586 183.391 146.336 183.391ZM156.965 173.441L158.664 175.141L156.965 176.84L155.266 175.141L156.965 173.441ZM161.312 185.5C160.773 185.5 160.32 185.43 159.953 185.289C159.594 185.141 159.312 184.984 159.109 184.82C158.992 185.844 158.707 186.832 158.254 187.785C157.809 188.746 157.137 189.582 156.238 190.293C155.34 191.004 154.152 191.504 152.676 191.793L151.984 189.941C153.891 189.527 155.234 188.801 156.016 187.762C156.797 186.73 157.188 185.508 157.188 184.094C157.188 183.43 157.113 182.734 156.965 182.008C156.824 181.273 156.625 180.527 156.367 179.77L158.312 179.113L158.945 181.562C159.117 182.219 159.391 182.684 159.766 182.957C160.141 183.23 160.613 183.367 161.184 183.367H161.629V185.5H161.312ZM169.352 185.77C168.57 185.77 167.848 185.602 167.184 185.266C166.527 184.922 165.844 184.406 165.133 183.719C164.625 184.289 164.137 184.73 163.668 185.043C163.199 185.348 162.539 185.5 161.688 185.5H161.172V183.367H161.629C162.152 183.367 162.594 183.219 162.953 182.922C163.312 182.617 163.633 182.227 163.914 181.75C164.195 181.273 164.473 180.77 164.746 180.238C165.027 179.699 165.34 179.191 165.684 178.715C166.027 178.238 166.441 177.852 166.926 177.555C167.418 177.25 168.023 177.098 168.742 177.098C169.609 177.098 170.363 177.309 171.004 177.73C171.652 178.145 172.152 178.703 172.504 179.406C172.863 180.109 173.043 180.895 173.043 181.762C173.043 183.035 172.719 184.023 172.07 184.727C171.43 185.422 170.523 185.77 169.352 185.77ZM168.789 179.172C168.398 179.172 168.043 179.305 167.723 179.57C167.402 179.828 167.113 180.164 166.855 180.578C166.598 180.992 166.367 181.422 166.164 181.867C166.633 182.359 167.117 182.762 167.617 183.074C168.258 183.488 168.828 183.695 169.328 183.695C170.484 183.695 171.062 183.113 171.062 181.949C171.062 181.137 170.859 180.473 170.453 179.957C170.055 179.434 169.5 179.172 168.789 179.172ZM172.879 191.805L172.188 189.941C174.094 189.527 175.438 188.801 176.219 187.762C177 186.73 177.391 185.508 177.391 184.094C177.391 183.43 177.316 182.734 177.168 182.008C177.027 181.273 176.828 180.527 176.57 179.77L178.516 179.113C179.078 180.715 179.359 182.258 179.359 183.742C179.359 185.047 179.129 186.254 178.668 187.363C178.215 188.48 177.508 189.426 176.547 190.199C175.594 190.98 174.371 191.516 172.879 191.805ZM182.348 169.363H184.328V180.566C184.328 181.668 184.531 182.41 184.938 182.793C185.344 183.176 185.957 183.367 186.777 183.367H187.07V185.5H186.777C185.285 185.5 184.172 185.105 183.438 184.316C182.711 183.52 182.348 182.266 182.348 180.555V169.363ZM189.414 174.133C190.094 174.609 190.801 175.113 191.535 175.645C192.27 176.168 192.953 176.73 193.586 177.332C194.227 177.926 194.742 178.562 195.133 179.242C195.531 179.914 195.73 180.633 195.73 181.398C195.723 182.852 195.219 183.898 194.219 184.539C193.227 185.18 191.641 185.5 189.461 185.5H186.602V183.367H189.449C190.965 183.367 192.051 183.234 192.707 182.969C193.363 182.695 193.691 182.156 193.691 181.352C193.691 180.836 193.508 180.332 193.141 179.84C192.781 179.348 192.312 178.863 191.734 178.387C191.164 177.902 190.551 177.43 189.895 176.969C189.238 176.5 188.621 176.039 188.043 175.586C187.793 175.383 187.602 175.145 187.469 174.871C187.336 174.598 187.27 174.324 187.27 174.051C187.27 173.73 187.355 173.43 187.527 173.148C187.707 172.859 187.984 172.641 188.359 172.492L196.785 169.07V171.145L189.414 174.133Z" fill="#E4E4E4"/>
<defs>
<filter id="filter0_d_570_17644" x="0" y="0" width="306.78" height="259.932" filterUnits="userSpaceOnUse" color-interpolation-filters="sRGB">
<feFlood flood-opacity="0" result="BackgroundImageFix"/>
<feColorMatrix in="SourceAlpha" type="matrix" values="0 0 0 0 0 0 0 0 0 0 0 0 0 0 0 0 0 0 127 0" result="hardAlpha"/>
<feOffset dy="4"/>
<feGaussianBlur stdDeviation="12"/>
<feComposite in2="hardAlpha" operator="out"/>
<feColorMatrix type="matrix" values="0 0 0 0 0 0 0 0 0 0 0 0 0 0 0 0 0 0 0.08 0"/>
<feBlend mode="normal" in2="BackgroundImageFix" result="effect1_dropShadow_570_17644"/>
<feBlend mode="normal" in="SourceGraphic" in2="effect1_dropShadow_570_17644" result="shape"/>
</filter>
</defs>
</svg>
