<svg width="410" height="366" viewBox="0 0 410 366" fill="none" xmlns="http://www.w3.org/2000/svg">
<g filter="url(#filter0_b_570_17625)">
<rect width="410" height="366" rx="16" fill="#272526"/>
</g>
<g filter="url(#filter1_f_570_17625)">
<rect x="133.244" y="55.9028" width="142.504" height="142.588" rx="44.2969" stroke="#F6D658" stroke-width="4" stroke-linecap="round" stroke-linejoin="round"/>
<path fill-rule="evenodd" clip-rule="evenodd" d="M167.851 135.02L195.561 166.706C197.816 169.285 201.073 170.764 204.498 170.764C207.922 170.764 211.18 169.285 213.435 166.706L241.144 135.02C245.062 130.54 245.062 123.851 241.144 119.371L213.435 87.6844C211.18 85.1058 207.922 83.6267 204.498 83.6267C201.073 83.6267 197.816 85.1058 195.561 87.6844L167.851 119.371C163.934 123.851 163.934 130.54 167.851 135.02Z" stroke="#F6D658" stroke-width="4" stroke-linecap="round" stroke-linejoin="round"/>
<path d="M244.082 127.672L209.492 135.117C206.2 135.825 202.795 135.825 199.503 135.117L164.913 127.672" stroke="#F6D658" stroke-width="4" stroke-linecap="round" stroke-linejoin="round"/>
</g>
<rect x="133.244" y="55.9028" width="142.504" height="142.588" rx="44.2969" stroke="#FEFDF0" stroke-width="4" stroke-linecap="round" stroke-linejoin="round"/>
<path fill-rule="evenodd" clip-rule="evenodd" d="M167.851 135.02L195.561 166.706C197.816 169.285 201.073 170.764 204.498 170.764C207.922 170.764 211.18 169.285 213.435 166.706L241.144 135.02C245.062 130.54 245.062 123.851 241.144 119.371L213.435 87.6844C211.18 85.1058 207.922 83.6267 204.498 83.6267C201.073 83.6267 197.816 85.1058 195.561 87.6844L167.851 119.371C163.934 123.851 163.934 130.54 167.851 135.02Z" stroke="#FEFDF0" stroke-width="4" stroke-linecap="round" stroke-linejoin="round"/>
<path d="M244.082 127.672L209.492 135.117C206.2 135.825 202.795 135.825 199.503 135.117L164.913 127.672" stroke="#FEFDF0" stroke-width="4" stroke-linecap="round" stroke-linejoin="round"/>
<path d="M74.6465 255.67H77.9746V270.326C77.9746 271.628 78.1934 272.529 78.6309 273.029C79.0788 273.529 79.834 273.779 80.8965 273.779H81.2871V277.357H80.8965C78.7611 277.357 77.1829 276.795 76.1621 275.67C75.1517 274.545 74.6465 272.816 74.6465 270.482V255.67ZM88.9434 276.045C88.0267 276.378 86.9642 276.68 85.7559 276.951C84.5475 277.222 83.3704 277.357 82.2246 277.357H80.6777V273.779H82.0215C82.5527 273.779 83.0319 273.769 83.459 273.748C83.8965 273.727 84.36 273.691 84.8496 273.639C84.3079 273.128 83.9017 272.529 83.6309 271.842C83.3704 271.144 83.2402 270.456 83.2402 269.779C83.2402 268.779 83.4798 267.873 83.959 267.061C84.4486 266.248 85.1204 265.597 85.9746 265.107C86.8392 264.618 87.8444 264.368 88.9902 264.357L90.4434 261.561C92.985 262.779 95.11 263.894 96.8184 264.904C98.5267 265.904 99.8132 266.904 100.678 267.904C101.542 268.894 101.975 269.998 101.975 271.217C101.975 273.175 101.376 274.665 100.178 275.686C98.9798 276.696 97.3861 277.201 95.3965 277.201C94.6777 277.201 93.9173 277.144 93.1152 277.029C92.3132 276.904 91.5475 276.753 90.8184 276.576C90.0892 276.389 89.4642 276.212 88.9434 276.045ZM92.8027 273.701C93.8444 273.857 94.7454 273.936 95.5059 273.936C96.485 273.936 97.2715 273.732 97.8652 273.326C98.459 272.92 98.7559 272.243 98.7559 271.295C98.7559 270.212 97.1569 268.785 93.959 267.014C94.4486 267.785 94.6934 268.602 94.6934 269.467C94.6934 270.373 94.5267 271.17 94.1934 271.857C93.86 272.535 93.3965 273.149 92.8027 273.701ZM86.459 269.748C86.459 270.352 86.7142 270.93 87.2246 271.482C87.7454 272.035 88.4173 272.462 89.2402 272.764C89.9486 272.503 90.5579 272.123 91.0684 271.623C91.5788 271.113 91.834 270.54 91.834 269.904C91.834 269.123 91.5788 268.493 91.0684 268.014C90.5684 267.524 89.9642 267.279 89.2559 267.279C88.4642 267.279 87.7975 267.514 87.2559 267.982C86.7246 268.441 86.459 269.029 86.459 269.748ZM107.521 260.357L110.021 262.857L107.521 265.357L105.021 262.857L107.521 260.357ZM101.631 285.811L100.428 282.592C102.844 282.071 104.631 281.201 105.787 279.982C106.943 278.764 107.521 277.165 107.521 275.186C107.521 274.269 107.402 273.279 107.162 272.217C106.923 271.154 106.631 270.113 106.287 269.092L109.584 267.998C109.98 269.092 110.277 270.222 110.475 271.389C110.673 272.545 110.771 273.665 110.771 274.748C110.771 277.644 109.99 280.066 108.428 282.014C106.876 283.962 104.61 285.227 101.631 285.811ZM112.443 285.811L111.24 282.592C113.657 282.071 115.443 281.201 116.6 279.982C117.756 278.764 118.334 277.165 118.334 275.186C118.334 274.269 118.214 273.279 117.975 272.217C117.735 271.154 117.443 270.113 117.1 269.092L120.396 267.998C120.792 269.092 121.089 270.222 121.287 271.389C121.485 272.545 121.584 273.665 121.584 274.748C121.584 277.644 120.803 280.066 119.24 282.014C117.688 283.962 115.423 285.227 112.443 285.811ZM128.631 255.67V277.342H125.303V255.67H128.631ZM135.365 260.357L137.865 262.857L135.365 265.357L132.865 262.857L135.365 260.357ZM141.162 277.357C140.558 277.357 140.027 277.285 139.568 277.139C139.12 276.982 138.761 276.805 138.49 276.607C138.282 278.076 137.829 279.441 137.131 280.701C136.433 281.962 135.454 283.035 134.193 283.92C132.943 284.816 131.365 285.446 129.459 285.811L128.271 282.592C130.688 282.071 132.475 281.201 133.631 279.982C134.787 278.764 135.365 277.165 135.365 275.186C135.365 274.269 135.245 273.279 135.006 272.217C134.766 271.154 134.475 270.113 134.131 269.092L137.428 267.998L138.303 271.389C138.511 272.18 138.829 272.779 139.256 273.186C139.683 273.581 140.261 273.779 140.99 273.779H141.584V277.357H141.162ZM151.896 277.717C150.834 277.717 149.85 277.488 148.943 277.029C148.037 276.571 147.12 275.936 146.193 275.123C145.558 275.8 144.928 276.342 144.303 276.748C143.688 277.154 142.803 277.357 141.646 277.357H140.959V273.779H141.568C142.183 273.779 142.714 273.581 143.162 273.186C143.62 272.779 144.037 272.264 144.412 271.639C144.787 271.003 145.167 270.331 145.553 269.623C145.949 268.915 146.391 268.248 146.881 267.623C147.37 266.988 147.949 266.472 148.615 266.076C149.292 265.67 150.105 265.467 151.053 265.467C152.282 265.467 153.344 265.758 154.24 266.342C155.146 266.925 155.844 267.706 156.334 268.686C156.834 269.654 157.084 270.722 157.084 271.889C157.084 273.649 156.641 275.061 155.756 276.123C154.87 277.186 153.584 277.717 151.896 277.717ZM151.146 268.904C150.667 268.904 150.23 269.066 149.834 269.389C149.449 269.712 149.1 270.118 148.787 270.607C148.485 271.087 148.219 271.571 147.99 272.061C148.313 272.383 148.626 272.665 148.928 272.904C149.23 273.133 149.521 273.337 149.803 273.514C150.584 273.982 151.282 274.217 151.896 274.217C152.574 274.217 153.068 274.019 153.381 273.623C153.704 273.227 153.865 272.701 153.865 272.045C153.865 271.149 153.626 270.404 153.146 269.811C152.667 269.206 152.001 268.904 151.146 268.904ZM156.756 285.811L155.553 282.592C157.969 282.071 159.756 281.201 160.912 279.982C162.068 278.764 162.646 277.165 162.646 275.186C162.646 274.269 162.527 273.279 162.287 272.217C162.048 271.154 161.756 270.113 161.412 269.092L164.709 267.998C165.105 269.092 165.402 270.222 165.6 271.389C165.798 272.545 165.896 273.665 165.896 274.748C165.896 277.644 165.115 280.066 163.553 282.014C162.001 283.962 159.735 285.227 156.756 285.811ZM180.646 265.514L180.037 264.967L182.115 262.295C183.428 263.357 184.641 264.389 185.756 265.389C186.881 266.389 187.782 267.404 188.459 268.436C189.136 269.456 189.475 270.545 189.475 271.701C189.475 273.43 188.896 274.795 187.74 275.795C186.594 276.795 185.105 277.295 183.271 277.295C181.313 277.295 179.787 276.816 178.693 275.857C177.61 274.889 177.068 273.67 177.068 272.201C177.068 270.951 177.391 269.811 178.037 268.779C178.683 267.738 179.553 266.649 180.646 265.514ZM186.24 271.639C186.24 271.222 186.074 270.785 185.74 270.326C185.417 269.857 185.011 269.394 184.521 268.936C184.042 268.477 183.563 268.05 183.084 267.654C182.313 268.383 181.657 269.097 181.115 269.795C180.584 270.493 180.318 271.18 180.318 271.857C180.318 272.41 180.563 272.868 181.053 273.232C181.542 273.597 182.277 273.779 183.256 273.779C185.245 273.779 186.24 273.066 186.24 271.639ZM196.162 273.826C197.87 273.826 199.251 273.613 200.303 273.186C201.355 272.758 201.881 272.05 201.881 271.061C201.881 270.071 201.298 269.019 200.131 267.904C198.975 266.79 197.344 265.686 195.24 264.592L196.787 261.436C198.433 262.258 199.881 263.154 201.131 264.123C202.381 265.092 203.355 266.144 204.053 267.279C204.761 268.404 205.115 269.628 205.115 270.951C205.115 273.149 204.37 274.764 202.881 275.795C201.402 276.816 199.24 277.326 196.396 277.326C195.646 277.326 194.933 277.295 194.256 277.232C193.589 277.17 192.949 277.071 192.334 276.936V273.373C193.011 273.508 193.683 273.618 194.35 273.701C195.016 273.785 195.62 273.826 196.162 273.826ZM216.475 277.357C215.87 277.357 215.339 277.285 214.881 277.139C214.433 276.982 214.074 276.805 213.803 276.607C213.594 278.076 213.141 279.441 212.443 280.701C211.745 281.962 210.766 283.035 209.506 283.92C208.256 284.816 206.678 285.446 204.771 285.811L203.584 282.592C206.001 282.071 207.787 281.201 208.943 279.982C210.1 278.764 210.678 277.165 210.678 275.186C210.678 274.269 210.558 273.279 210.318 272.217C210.079 271.154 209.787 270.113 209.443 269.092L212.74 267.998L213.615 271.389C213.824 272.18 214.141 272.779 214.568 273.186C214.995 273.581 215.574 273.779 216.303 273.779H216.896V277.357H216.475ZM223.162 259.592L225.568 261.982L223.162 264.404L220.787 261.982L223.162 259.592ZM217.943 259.592L220.35 261.982L217.943 264.404L215.553 261.982L217.943 259.592ZM216.271 273.779H218.459C219.699 273.779 220.574 273.529 221.084 273.029C221.594 272.519 221.85 271.691 221.85 270.545C221.85 269.993 221.834 269.467 221.803 268.967C221.782 268.456 221.751 267.956 221.709 267.467L224.881 267.076L225.162 271.092C225.266 272.883 226.225 273.779 228.037 273.779H228.365V277.357H228.006C226.902 277.357 225.99 277.16 225.271 276.764C224.553 276.368 223.969 275.821 223.521 275.123C222.928 275.863 222.183 276.42 221.287 276.795C220.391 277.17 219.449 277.357 218.459 277.357H216.271V273.779ZM246.818 277.357C245.839 277.357 245.037 277.16 244.412 276.764C243.787 276.357 243.271 275.816 242.865 275.139C242.303 275.857 241.673 276.41 240.975 276.795C240.277 277.17 239.495 277.357 238.631 277.357C237.495 277.357 236.589 277.165 235.912 276.779C235.235 276.394 234.688 275.852 234.271 275.154C233.74 275.852 233.089 276.394 232.318 276.779C231.548 277.165 230.501 277.357 229.178 277.357H227.74V273.779H229.209C230.459 273.779 231.36 273.581 231.912 273.186C232.475 272.779 232.756 271.972 232.756 270.764C232.756 270.503 232.74 270.113 232.709 269.592C232.678 269.071 232.636 268.498 232.584 267.873L235.771 267.482L236.053 271.17C236.105 271.962 236.344 272.597 236.771 273.076C237.199 273.545 237.829 273.779 238.662 273.779C239.662 273.779 240.334 273.535 240.678 273.045C241.032 272.555 241.209 271.795 241.209 270.764C241.209 270.514 241.193 270.128 241.162 269.607C241.131 269.076 241.089 268.498 241.037 267.873L244.225 267.482L244.506 271.17C244.558 271.93 244.751 272.555 245.084 273.045C245.428 273.535 245.995 273.779 246.787 273.779C247.506 273.779 248.021 273.524 248.334 273.014C248.657 272.493 248.818 271.743 248.818 270.764C248.818 270.389 248.803 269.936 248.771 269.404C248.74 268.863 248.699 268.264 248.646 267.607L251.834 267.217L252.115 271.17C252.219 272.91 253.152 273.779 254.912 273.779H255.381V277.357H254.943C252.798 277.357 251.381 276.633 250.693 275.186C250.256 275.852 249.74 276.383 249.146 276.779C248.553 277.165 247.777 277.357 246.818 277.357ZM256.193 258.529V256.529L268.428 251.561V253.561L256.193 258.529ZM259.365 262.514C260.334 263.139 261.282 263.785 262.209 264.451C263.146 265.107 263.99 265.8 264.74 266.529C265.501 267.258 266.105 268.035 266.553 268.857C267.001 269.68 267.225 270.576 267.225 271.545C267.225 273.712 266.49 275.222 265.021 276.076C263.553 276.93 261.407 277.357 258.584 277.357H254.771V273.779H258.568C260.433 273.779 261.792 273.628 262.646 273.326C263.511 273.014 263.943 272.399 263.943 271.482C263.943 270.951 263.693 270.399 263.193 269.826C262.704 269.253 262.074 268.68 261.303 268.107C260.532 267.524 259.725 266.951 258.881 266.389C258.048 265.826 257.287 265.279 256.6 264.748C256.214 264.467 255.923 264.113 255.725 263.686C255.527 263.248 255.428 262.805 255.428 262.357C255.428 261.868 255.553 261.404 255.803 260.967C256.063 260.529 256.459 260.201 256.99 259.982L268.584 255.264V258.779L259.365 262.514ZM300.162 256.482L302.662 258.982L300.162 261.482L297.662 258.982L300.162 256.482ZM291.303 273.779H292.615C292.782 273.779 293.068 273.779 293.475 273.779C293.881 273.779 294.318 273.774 294.787 273.764C295.266 273.753 295.688 273.738 296.053 273.717C295.532 273.061 295.136 272.404 294.865 271.748C294.594 271.081 294.459 270.373 294.459 269.623C294.459 268.904 294.615 268.191 294.928 267.482C295.251 266.774 295.683 266.133 296.225 265.561C296.766 264.977 297.381 264.514 298.068 264.17C298.756 263.816 299.464 263.639 300.193 263.639C300.954 263.639 301.683 263.811 302.381 264.154C303.079 264.498 303.704 264.962 304.256 265.545C304.808 266.128 305.24 266.774 305.553 267.482C305.876 268.191 306.037 268.915 306.037 269.654C306.037 270.415 305.896 271.123 305.615 271.779C305.334 272.425 304.928 273.076 304.396 273.732C304.824 273.753 305.209 273.769 305.553 273.779C305.896 273.779 306.204 273.779 306.475 273.779H307.99V277.357H306.225C305.516 277.357 304.6 277.258 303.475 277.061C302.35 276.852 301.251 276.561 300.178 276.186C299.449 276.446 298.605 276.665 297.646 276.842C296.699 277.008 295.782 277.139 294.896 277.232C294.021 277.316 293.329 277.357 292.818 277.357H291.303C288.782 277.357 286.615 277.139 284.803 276.701C283.001 276.253 281.615 275.493 280.646 274.42C279.688 273.347 279.209 271.857 279.209 269.951C279.209 269.139 279.298 268.347 279.475 267.576C279.652 266.795 279.886 266.061 280.178 265.373L283.178 266.498C283.011 266.977 282.855 267.503 282.709 268.076C282.574 268.649 282.506 269.196 282.506 269.717C282.506 270.852 282.865 271.712 283.584 272.295C284.303 272.878 285.318 273.274 286.631 273.482C287.954 273.68 289.511 273.779 291.303 273.779ZM300.193 267.092C299.839 267.092 299.469 267.227 299.084 267.498C298.699 267.758 298.37 268.087 298.1 268.482C297.839 268.878 297.709 269.279 297.709 269.686C297.709 270.123 297.839 270.566 298.1 271.014C298.36 271.462 298.683 271.868 299.068 272.232C299.464 272.597 299.85 272.878 300.225 273.076C300.881 272.774 301.469 272.3 301.99 271.654C302.521 270.998 302.787 270.331 302.787 269.654C302.787 269.269 302.646 268.878 302.365 268.482C302.084 268.087 301.74 267.758 301.334 267.498C300.938 267.227 300.558 267.092 300.193 267.092ZM307.334 273.779H309.693C310.933 273.779 311.808 273.529 312.318 273.029C312.829 272.519 313.084 271.691 313.084 270.545C313.084 269.993 313.068 269.467 313.037 268.967C313.016 268.456 312.985 267.956 312.943 267.467L316.115 267.076L316.396 271.092C316.501 272.883 317.459 273.779 319.271 273.779H319.6V277.357H319.24C318.136 277.357 317.225 277.16 316.506 276.764C315.787 276.368 315.204 275.821 314.756 275.123C314.162 275.863 313.417 276.42 312.521 276.795C311.626 277.17 310.683 277.357 309.693 277.357H307.334V273.779ZM312.99 279.623L315.396 282.014L312.99 284.436L310.615 282.014L312.99 279.623ZM307.771 279.623L310.178 282.014L307.771 284.436L305.381 282.014L307.771 279.623ZM321.459 273.779C321.636 273.488 321.818 273.201 322.006 272.92C322.193 272.639 322.376 272.363 322.553 272.092V255.67H325.881V267.686C326.933 266.519 327.995 265.628 329.068 265.014C330.141 264.399 331.277 264.092 332.475 264.092C333.745 264.092 334.86 264.357 335.818 264.889C336.787 265.41 337.542 266.133 338.084 267.061C338.626 267.977 338.896 269.035 338.896 270.232C338.896 271.941 338.417 273.321 337.459 274.373C336.511 275.415 335.152 276.175 333.381 276.654C331.62 277.123 329.521 277.357 327.084 277.357H318.99V273.779H321.459ZM332.615 267.607C331.396 267.607 330.136 268.17 328.834 269.295C327.542 270.42 326.292 271.915 325.084 273.779H327.131C329.725 273.779 331.777 273.54 333.287 273.061C334.798 272.571 335.553 271.701 335.553 270.451C335.553 269.618 335.277 268.936 334.725 268.404C334.183 267.873 333.48 267.607 332.615 267.607Z" fill="#F5F7FD"/>
<defs>
<filter id="filter0_b_570_17625" x="-14" y="-14" width="438" height="394" filterUnits="userSpaceOnUse" color-interpolation-filters="sRGB">
<feFlood flood-opacity="0" result="BackgroundImageFix"/>
<feGaussianBlur in="BackgroundImageFix" stdDeviation="7"/>
<feComposite in2="SourceAlpha" operator="in" result="effect1_backgroundBlur_570_17625"/>
<feBlend mode="normal" in="SourceGraphic" in2="effect1_backgroundBlur_570_17625" result="shape"/>
</filter>
<filter id="filter1_f_570_17625" x="79.5352" y="2.17578" width="249.927" height="250.039" filterUnits="userSpaceOnUse" color-interpolation-filters="sRGB">
<feFlood flood-opacity="0" result="BackgroundImageFix"/>
<feBlend mode="normal" in="SourceGraphic" in2="BackgroundImageFix" result="shape"/>
<feGaussianBlur stdDeviation="15" result="effect1_foregroundBlur_570_17625"/>
</filter>
</defs>
</svg>
