<svg width="308" height="275" viewBox="0 0 308 275" fill="none" xmlns="http://www.w3.org/2000/svg">
<rect width="307.86" height="274.397" rx="16" fill="#272526"/>
<path d="M176.762 91.8304L168.482 80.7899C166.252 77.8166 162.087 77.1033 158.995 79.1649L139.751 91.9941" stroke="white" stroke-width="3" stroke-linecap="round" stroke-linejoin="round"/>
<path fill-rule="evenodd" clip-rule="evenodd" d="M176.761 107.75H185.515C187.449 107.75 189.017 109.318 189.017 111.251V121.756C189.017 123.69 187.449 125.257 185.515 125.257H176.761C171.927 125.257 168.008 121.338 168.008 116.504V116.504C168.008 111.669 171.927 107.75 176.761 107.75V107.75Z" stroke="white" stroke-width="3" stroke-linecap="round" stroke-linejoin="round"/>
<path d="M185.513 107.75V100.747C185.513 95.9123 181.593 91.9932 176.759 91.9932H131.24C126.405 91.9932 122.486 95.9123 122.486 100.747V132.26C122.486 137.094 126.405 141.014 131.24 141.014H176.759C181.593 141.014 185.513 137.094 185.513 132.26V125.257" stroke="white" stroke-width="3" stroke-linecap="round" stroke-linejoin="round"/>
<path d="M83.2969 195.141C83.2969 197.609 82.7695 199.422 81.7148 200.578C80.6602 201.734 79.1211 202.312 77.0977 202.312C75.6445 202.312 74.4609 202.051 73.5469 201.527C72.6328 201.012 71.9609 200.289 71.5312 199.359C71.1016 198.43 70.8867 197.352 70.8867 196.125C70.8867 195.297 70.9727 194.449 71.1445 193.582C71.3164 192.707 71.5508 191.855 71.8477 191.027L73.7109 191.777C73.4844 192.496 73.293 193.234 73.1367 193.992C72.9805 194.75 72.9023 195.484 72.9023 196.195C72.9023 197.461 73.2227 198.445 73.8633 199.148C74.5117 199.852 75.5898 200.203 77.0977 200.203C78.4961 200.203 79.5469 199.82 80.25 199.055C80.9609 198.289 81.3164 197.055 81.3164 195.352V180.363H83.2969V195.141ZM90.1875 187.934C91.4062 187.934 92.4336 188.48 93.2695 189.574C94.1055 190.66 94.5391 192.258 94.5703 194.367H95.9883V196.5H94.3828C94.2109 197.398 93.8672 198.266 93.3516 199.102C92.8438 199.945 92.0859 200.688 91.0781 201.328C90.0703 201.977 88.7344 202.461 87.0703 202.781L86.3789 200.918C89.918 200.238 91.9688 198.766 92.5312 196.5H90.6797C87.7188 196.5 86.2383 195.301 86.2383 192.902C86.2383 192.137 86.3906 191.371 86.6953 190.605C87.0078 189.84 87.457 189.203 88.043 188.695C88.6367 188.188 89.3516 187.934 90.1875 187.934ZM90.5625 194.367H92.6367C92.543 192.859 92.293 191.762 91.8867 191.074C91.4883 190.387 90.9102 190.043 90.1523 190.043C89.6523 190.043 89.2578 190.203 88.9688 190.523C88.6875 190.844 88.4883 191.223 88.3711 191.66C88.2617 192.09 88.207 192.48 88.207 192.832C88.207 193.379 88.3906 193.773 88.7578 194.016C89.1328 194.25 89.7344 194.367 90.5625 194.367ZM95.5195 194.367H99.3398C100.121 194.367 100.648 194.141 100.922 193.688C101.203 193.234 101.344 192.66 101.344 191.965C101.344 191.457 101.297 190.914 101.203 190.336C101.109 189.758 101.008 189.176 100.898 188.59L102.938 188.074C103.07 188.699 103.176 189.312 103.254 189.914C103.332 190.516 103.371 191.09 103.371 191.637C103.371 192.574 103.242 193.41 102.984 194.145C102.727 194.879 102.305 195.457 101.719 195.879C101.133 196.293 100.348 196.5 99.3633 196.5H95.5195V194.367ZM101.039 197.977L102.621 199.559L101.039 201.141L99.457 199.559L101.039 197.977ZM97.0312 197.977L98.6133 199.559L97.0312 201.141L95.4492 199.559L97.0312 197.977ZM99.0352 200.941L100.617 202.523L99.0352 204.105L97.4531 202.523L99.0352 200.941ZM127.664 181.5L129.363 183.199L127.664 184.898L125.965 183.199L127.664 181.5ZM120.996 194.367H122.027C122.098 194.367 122.316 194.367 122.684 194.367C123.051 194.367 123.461 194.363 123.914 194.355C124.367 194.34 124.754 194.324 125.074 194.309C124.605 193.762 124.238 193.219 123.973 192.68C123.707 192.141 123.574 191.566 123.574 190.957C123.574 190.473 123.688 189.984 123.914 189.492C124.141 189 124.445 188.543 124.828 188.121C125.211 187.699 125.648 187.363 126.141 187.113C126.633 186.855 127.141 186.727 127.664 186.727C128.211 186.727 128.734 186.855 129.234 187.113C129.734 187.363 130.176 187.699 130.559 188.121C130.949 188.535 131.258 188.992 131.484 189.492C131.711 189.992 131.824 190.488 131.824 190.98C131.824 191.598 131.688 192.172 131.414 192.703C131.141 193.227 130.766 193.766 130.289 194.32C130.727 194.344 131.117 194.359 131.461 194.367C131.805 194.367 132.109 194.367 132.375 194.367H133.512V196.5H132.398C132.102 196.5 131.695 196.477 131.18 196.43C130.664 196.375 130.098 196.285 129.48 196.16C128.863 196.035 128.254 195.867 127.652 195.656C127.051 195.875 126.371 196.047 125.613 196.172C124.855 196.289 124.145 196.375 123.48 196.43C122.816 196.477 122.324 196.5 122.004 196.5H120.996C118.051 196.5 115.836 196.102 114.352 195.305C112.875 194.508 112.137 193.129 112.137 191.168C112.137 190.629 112.195 190.102 112.312 189.586C112.438 189.07 112.598 188.574 112.793 188.098L114.609 188.777C114.484 189.121 114.379 189.488 114.293 189.879C114.215 190.27 114.176 190.641 114.176 190.992C114.184 191.906 114.441 192.609 114.949 193.102C115.457 193.586 116.215 193.918 117.223 194.098C118.23 194.277 119.488 194.367 120.996 194.367ZM127.664 188.801C127.367 188.801 127.055 188.914 126.727 189.141C126.406 189.359 126.133 189.637 125.906 189.973C125.688 190.309 125.578 190.652 125.578 191.004C125.578 191.363 125.684 191.73 125.895 192.105C126.105 192.48 126.371 192.824 126.691 193.137C127.02 193.449 127.352 193.691 127.688 193.863C128.281 193.613 128.785 193.211 129.199 192.656C129.621 192.094 129.832 191.535 129.832 190.98C129.832 190.652 129.715 190.32 129.48 189.984C129.254 189.648 128.973 189.367 128.637 189.141C128.301 188.914 127.977 188.801 127.664 188.801ZM133.031 194.367H134.801C135.793 194.367 136.5 194.145 136.922 193.699C137.352 193.254 137.566 192.57 137.566 191.648C137.566 191.273 137.555 190.918 137.531 190.582C137.516 190.246 137.492 189.91 137.461 189.574L139.418 189.34L139.605 192.082C139.699 193.605 140.492 194.367 141.984 194.367H142.23V196.5H141.961C141.094 196.5 140.398 196.344 139.875 196.031C139.359 195.719 138.941 195.277 138.621 194.707C138.199 195.324 137.645 195.777 136.957 196.066C136.27 196.355 135.551 196.5 134.801 196.5H133.031V194.367ZM137.262 198.363L138.902 199.992L137.262 201.645L135.633 199.992L137.262 198.363ZM133.371 198.363L135.012 199.992L133.371 201.645L131.742 199.992L133.371 198.363ZM144.586 185.133C145.266 185.609 145.973 186.113 146.707 186.645C147.441 187.168 148.125 187.73 148.758 188.332C149.398 188.926 149.914 189.562 150.305 190.242C150.703 190.914 150.902 191.633 150.902 192.398C150.895 193.852 150.391 194.898 149.391 195.539C148.398 196.18 146.812 196.5 144.633 196.5H141.773V194.367H144.621C146.137 194.367 147.223 194.234 147.879 193.969C148.535 193.695 148.863 193.156 148.863 192.352C148.863 191.836 148.68 191.332 148.312 190.84C147.953 190.348 147.484 189.863 146.906 189.387C146.336 188.902 145.723 188.43 145.066 187.969C144.41 187.5 143.793 187.039 143.215 186.586C142.965 186.383 142.773 186.145 142.641 185.871C142.508 185.598 142.441 185.324 142.441 185.051C142.441 184.73 142.527 184.43 142.699 184.148C142.879 183.859 143.156 183.641 143.531 183.492L151.957 180.07V182.145L144.586 185.133ZM171.727 185.004L173.367 186.633L171.727 188.285L170.098 186.633L171.727 185.004ZM167.836 185.004L169.477 186.633L167.836 188.285L166.207 186.633L167.836 185.004ZM176.871 189.574L178.828 189.34L179.027 192.082C179.074 192.824 179.285 193.391 179.66 193.781C180.043 194.172 180.613 194.367 181.371 194.367H181.652V196.5H181.371C180.488 196.5 179.762 196.336 179.191 196.008C178.629 195.672 178.164 195.137 177.797 194.402C177.148 195.152 176.316 195.691 175.301 196.02C174.293 196.34 172.891 196.5 171.094 196.5H169.137C166.191 196.5 163.977 196.102 162.492 195.305C161.016 194.508 160.277 193.129 160.277 191.168C160.277 190.629 160.336 190.102 160.453 189.586C160.578 189.07 160.738 188.574 160.934 188.098L162.75 188.777C162.625 189.121 162.52 189.488 162.434 189.879C162.355 190.27 162.316 190.641 162.316 190.992C162.324 191.906 162.582 192.609 163.09 193.102C163.598 193.586 164.355 193.918 165.363 194.098C166.371 194.277 167.629 194.367 169.137 194.367H171.094C172.961 194.367 174.406 194.172 175.43 193.781C176.461 193.391 176.977 192.68 176.977 191.648C176.977 191.328 176.965 190.984 176.941 190.617C176.926 190.25 176.902 189.902 176.871 189.574ZM181.172 194.367H183.715C184.496 194.367 185.023 194.141 185.297 193.688C185.578 193.234 185.719 192.66 185.719 191.965C185.719 191.457 185.672 190.914 185.578 190.336C185.484 189.758 185.383 189.176 185.273 188.59L187.312 188.074C187.445 188.699 187.551 189.312 187.629 189.914C187.707 190.516 187.746 191.09 187.746 191.637C187.746 192.574 187.617 193.41 187.359 194.145C187.102 194.879 186.68 195.457 186.094 195.879C185.508 196.293 184.723 196.5 183.738 196.5H181.172V194.367ZM185.402 198.363L187.043 199.992L185.402 201.645L183.773 199.992L185.402 198.363ZM181.512 198.363L183.152 199.992L181.512 201.645L179.883 199.992L181.512 198.363ZM198.094 196.5C197.555 196.5 197.102 196.43 196.734 196.289C196.375 196.141 196.094 195.984 195.891 195.82C195.773 196.844 195.488 197.832 195.035 198.785C194.59 199.746 193.918 200.582 193.02 201.293C192.121 202.004 190.934 202.504 189.457 202.793L188.766 200.941C190.672 200.527 192.016 199.801 192.797 198.762C193.578 197.73 193.969 196.508 193.969 195.094C193.969 194.43 193.895 193.734 193.746 193.008C193.605 192.273 193.406 191.527 193.148 190.77L195.094 190.113L195.727 192.562C195.898 193.219 196.172 193.684 196.547 193.957C196.922 194.23 197.395 194.367 197.965 194.367H198.41V196.5H198.094ZM197.953 194.367H201.293C202.074 194.367 202.602 194.141 202.875 193.688C203.156 193.234 203.297 192.66 203.297 191.965C203.297 191.457 203.25 190.914 203.156 190.336C203.062 189.758 202.961 189.176 202.852 188.59L204.891 188.074C205.023 188.699 205.129 189.312 205.207 189.914C205.285 190.516 205.324 191.09 205.324 191.637C205.324 192.574 205.195 193.41 204.938 194.145C204.68 194.879 204.258 195.457 203.672 195.879C203.086 196.293 202.301 196.5 201.316 196.5H197.953V194.367ZM202.98 198.363L204.621 199.992L202.98 201.645L201.352 199.992L202.98 198.363ZM199.09 198.363L200.73 199.992L199.09 201.645L197.461 199.992L199.09 198.363ZM214.395 192.234C214.395 192.031 214.348 191.77 214.254 191.449C214.168 191.121 214.062 190.816 213.938 190.535L211.863 185.836L213.691 184.98L216.352 191.238C216.711 192.082 217.023 192.73 217.289 193.184C217.562 193.637 217.828 193.949 218.086 194.121C218.352 194.285 218.652 194.367 218.988 194.367H219.48V196.5H218.988C218.371 196.5 217.867 196.426 217.477 196.277C217.094 196.129 216.762 195.906 216.48 195.609C216.199 195.312 215.914 194.938 215.625 194.484C215.078 195.172 214.379 195.68 213.527 196.008C212.684 196.328 211.629 196.488 210.363 196.488C209.816 196.488 209.324 196.465 208.887 196.418C208.449 196.363 208.035 196.289 207.645 196.195V194.074C208.543 194.285 209.391 194.391 210.188 194.391C212.992 194.391 214.395 193.672 214.395 192.234ZM227.203 196.77C226.422 196.77 225.699 196.602 225.035 196.266C224.379 195.922 223.695 195.406 222.984 194.719C222.477 195.289 221.988 195.73 221.52 196.043C221.051 196.348 220.391 196.5 219.539 196.5H219.023V194.367H219.48C220.004 194.367 220.445 194.219 220.805 193.922C221.164 193.617 221.484 193.227 221.766 192.75C222.047 192.273 222.324 191.77 222.598 191.238C222.879 190.699 223.191 190.191 223.535 189.715C223.879 189.238 224.293 188.852 224.777 188.555C225.27 188.25 225.875 188.098 226.594 188.098C227.461 188.098 228.215 188.309 228.855 188.73C229.504 189.145 230.004 189.703 230.355 190.406C230.715 191.109 230.895 191.895 230.895 192.762C230.895 194.035 230.57 195.023 229.922 195.727C229.281 196.422 228.375 196.77 227.203 196.77ZM226.641 190.172C226.25 190.172 225.895 190.305 225.574 190.57C225.254 190.828 224.965 191.164 224.707 191.578C224.449 191.992 224.219 192.422 224.016 192.867C224.484 193.359 224.969 193.762 225.469 194.074C226.109 194.488 226.68 194.695 227.18 194.695C228.336 194.695 228.914 194.113 228.914 192.949C228.914 192.137 228.711 191.473 228.305 190.957C227.906 190.434 227.352 190.172 226.641 190.172Z" fill="#E4E4E4"/>
</svg>
