<svg width="85" height="38" viewBox="0 0 85 38" fill="none" xmlns="http://www.w3.org/2000/svg">
<path opacity="0.3" d="M22.1039 17.6365C16.625 18.3257 18.2433 23.9643 13.625 27.9043C9.13809 31.7322 1.125 30.3257 1.125 30.3257V37.096H83.625V2.82574C83.625 2.82574 76.7284 2.7146 71.625 4.82577C66.9686 6.75203 67.125 12.3258 61.125 12.3258C55.125 12.3257 54.625 -1.67428 49.125 1.32574C43.625 4.32576 45.8868 15.7544 40.625 19.8257C38.0053 21.8527 37.0587 23.2368 33.125 22.8257C29.0789 22.4029 27.5828 16.9473 22.1039 17.6365Z" fill="url(#paint0_linear_570_17671)"/>
<path d="M1.125 29.9021C1.125 29.9021 9.10895 31.3342 13.625 27.4021C18.0839 23.5197 16.8901 17.3665 22.8023 17.364C26.8705 17.3623 29.0789 22.4007 33.125 22.8235C37.0587 23.2346 38.4335 22.5831 40.9431 19.5262C45.625 13.8235 44.125 3.8236 49.125 1.32347C54.125 -1.17665 56.125 8.32349 56.125 8.32349C56.125 8.32349 56.6009 11.3334 59.3234 12.0532C65.1541 13.595 67.0901 6.42479 72.8234 4.55324C77.7064 2.95927 83.625 2.82353 83.625 2.82353" stroke="#0FAE96" stroke-linecap="round"/>
<defs>
<linearGradient id="paint0_linear_570_17671" x1="35.625" y1="-23.7827" x2="49.3369" y2="26.708" gradientUnits="userSpaceOnUse">
<stop stop-color="#00A58C"/>
<stop offset="1" stop-color="#00A58C" stop-opacity="0"/>
</linearGradient>
</defs>
</svg>
