<svg width="85" height="38" viewBox="0 0 85 38" fill="none" xmlns="http://www.w3.org/2000/svg">
<path opacity="0.3" d="M62.6461 17.6365C68.125 18.3257 66.5067 23.9643 71.125 27.9043C75.6119 31.7322 83.625 30.3257 83.625 30.3257V37.096H1.125V2.82574C1.125 2.82574 8.02158 2.7146 13.125 4.82577C17.7814 6.75203 17.625 12.3258 23.625 12.3258C29.625 12.3257 30.125 -1.67428 35.625 1.32574C41.125 4.32576 38.8632 15.7544 44.125 19.8257C46.7447 21.8527 47.6913 23.2368 51.625 22.8257C55.6711 22.4029 57.1672 16.9473 62.6461 17.6365Z" fill="url(#paint0_linear_570_17690)"/>
<path d="M83.625 29.9021C83.625 29.9021 75.641 31.3342 71.125 27.4021C66.6661 23.5197 67.8599 17.3665 61.9477 17.364C57.8795 17.3623 55.6711 22.4007 51.625 22.8235C47.6913 23.2346 46.3165 22.5831 43.8069 19.5262C39.125 13.8235 40.625 3.8236 35.625 1.32347C30.625 -1.17665 28.625 8.32349 28.625 8.32349C28.625 8.32349 28.1491 11.3334 25.4266 12.0532C19.5959 13.595 17.6599 6.42479 11.9266 4.55324C7.04361 2.95927 1.125 2.82353 1.125 2.82353" stroke="#F04438" stroke-linecap="round"/>
<defs>
<linearGradient id="paint0_linear_570_17690" x1="49.125" y1="-23.7827" x2="35.4131" y2="26.708" gradientUnits="userSpaceOnUse">
<stop stop-color="#A50000"/>
<stop offset="1" stop-color="#A50000" stop-opacity="0"/>
</linearGradient>
</defs>
</svg>
