<svg width="111" height="19" viewBox="0 0 111 19" fill="none" xmlns="http://www.w3.org/2000/svg">
<path d="M7.24923 12.7611C11.1183 10.8976 6.85878 7.45924 3.50432 9.06171C2.35581 9.6104 1.621 10.6129 1.24886 11.8215C-0.353878 17.0271 6.17466 18.2162 9.68109 17.9697C23.924 16.9684 35.6199 6.93431 49.4403 4.22546C54.1356 3.30507 62.0903 6.10423 62.0935 12.0472C62.0964 17.2395 54.633 18.0572 51.4159 15.6667C49.9664 14.5895 49.3028 13.0553 49.1546 11.269C48.6462 5.14241 55.8884 2.29715 60.5963 1.41641C70.8745 -0.506532 82.3817 4.58313 91.1913 9.45718C97.7747 13.0996 102.593 18.2786 110 13.6218" stroke="#F6D658" stroke-width="2" stroke-miterlimit="1.5" stroke-linecap="round" stroke-linejoin="round"/>
</svg>
